# xmcd
#
# Track frame offsets: 
#        150
#        15057
#        32555
#        45703
#        60557
#        76481
#        90001
#        108865
#        123802
#        137162
#        151054
#        165918
#
# Disc length: 2382 seconds
#
# Revision: 0
# Processed by: cddbd v1.5.1PL2 Copyright (c) Steve Scherf et al.
# Submitted via: ExactAudioCopy v0.95b2
#
DISCID=73094c0c
DTITLE=Лолита - Формат
DYEAR=2005
DGENRE=Pop
TTITLE0=Пошлю Его На...
TTITLE1=Жизнь За Тебя
TTITLE2=Даша
TTITLE3=Дотянуться До Неба
TTITLE4=Самолёт
TTITLE5=Помада
TTITLE6=Испанское Свидание
TTITLE7=Мачо
TTITLE8=Свет
TTITLE9=Полю Его На... (Попса 3000 Remix)
TTITLE10=Пять Минут Разговора
TTITLE11=И Сказал Ты
EXTD=
EXTT0=
EXTT1=
EXTT2=
EXTT3=
EXTT4=
EXTT5=
EXTT6=
EXTT7=
EXTT8=
EXTT9=
EXTT10=
EXTT11=
PLAYORDER=
